<svg width="12" height="11" viewBox="0 0 12 11" fill="none" xmlns="http://www.w3.org/2000/svg">
<path d="M11.5078 4.9375L10.375 3.92188V1.34375C10.375 1.08984 10.1602 0.875 9.90625 0.875H8.03125C7.75781 0.875 7.5625 1.08984 7.5625 1.34375V1.40234L6.50781 0.464844C6.39062 0.347656 6.15625 0.25 6 0.25C5.82422 0.25 5.58984 0.347656 5.47266 0.464844L0.472656 4.9375C0.414062 4.99609 0.355469 5.11328 0.355469 5.17188C0.355469 5.25 0.394531 5.34766 0.453125 5.38672L0.648438 5.62109C0.707031 5.67969 0.804688 5.71875 0.882812 5.71875C0.941406 5.71875 1.03906 5.69922 1.09766 5.64062L1.60547 5.17188V9.46875C1.60547 9.91797 1.95703 10.25 2.38672 10.25H9.59375C10.0234 10.25 10.375 9.91797 10.375 9.46875V5.17188L10.8828 5.64062C10.9414 5.69922 11.0391 5.71875 11.0977 5.71875C11.1758 5.71875 11.2734 5.67969 11.332 5.62109L11.5469 5.38672C11.5859 5.34766 11.625 5.25 11.625 5.17188C11.625 5.11328 11.5664 4.99609 11.5078 4.9375ZM9.4375 9.3125H2.5625V4.33203L6 1.24609L9.4375 4.33203V9.3125ZM9.4375 3.08203L8.5 2.24219V1.8125H9.4375V3.08203ZM4.75 4.3125V6.1875C4.75 6.36328 4.88672 6.5 5.0625 6.5H6.9375C7.09375 6.5 7.25 6.36328 7.25 6.1875V4.3125C7.25 4.15625 7.09375 4 6.9375 4H5.0625C4.88672 4 4.75 4.15625 4.75 4.3125Z" fill="#343A3B"/>
</svg>
