<svg width="199" height="30" viewBox="0 0 199 30" fill="none" xmlns="http://www.w3.org/2000/svg">
<path d="M51.488 22L47.168 15.472C49.352 15.28 51.344 13.696 51.344 10.816C51.344 7.864 49.232 5.992 46.304 5.992H39.872V22H41.864V15.64H45.08L49.136 22H51.488ZM46.064 13.888H41.864V7.768H46.064C47.96 7.768 49.28 8.992 49.28 10.816C49.28 12.616 47.96 13.888 46.064 13.888ZM64.985 22V20.224H56.489V14.704H64.817V12.928H56.489V7.768H64.985V5.992H54.497V22H64.985ZM81.8651 22L75.4331 5.992H72.9611L66.5051 22H68.7851L70.2011 18.424H78.1691L79.5851 22H81.8651ZM77.5931 16.672H70.8011L74.1851 8.032L77.5931 16.672ZM89.4299 22C94.4219 22 97.6379 18.568 97.6379 14.008C97.6379 9.472 94.4219 5.992 89.4299 5.992H83.9579V22H89.4299ZM89.4299 20.224H85.9499V7.768H89.4299C93.3899 7.768 95.5739 10.552 95.5739 14.008C95.5739 17.44 93.3179 20.224 89.4299 20.224ZM102.755 22V5.992H100.763V22H102.755ZM119.753 22V5.992H117.761V18.496L108.545 5.992H106.505V22H108.497V9.232L117.833 22H119.753ZM130.937 22.312C135.881 22.312 138.617 18.784 138.617 13.768H129.881V15.544H136.457C136.073 18.184 134.369 20.512 131.081 20.512C127.577 20.512 124.913 17.8 124.913 14.008C124.913 10.168 127.577 7.504 131.081 7.504C133.001 7.504 134.705 8.416 135.713 9.712L137.297 8.704C135.905 6.976 133.937 5.728 131.081 5.728C126.521 5.728 122.849 9.016 122.849 14.008C122.849 18.976 126.521 22.312 130.937 22.312ZM141.494 22.24C142.214 22.24 142.814 21.64 142.814 20.92C142.814 20.2 142.214 19.6 141.494 19.6C140.774 19.6 140.174 20.2 140.174 20.92C140.174 21.64 140.774 22.24 141.494 22.24ZM153.745 22.288C156.577 22.288 158.497 20.944 159.841 19.096L158.161 18.184C157.249 19.528 155.569 20.512 153.745 20.512C150.241 20.512 147.577 17.8 147.577 14.008C147.577 10.168 150.241 7.504 153.745 7.504C155.569 7.504 157.249 8.464 158.161 9.832L159.817 8.896C158.545 7.072 156.577 5.728 153.745 5.728C149.137 5.728 145.513 9.088 145.513 14.008C145.513 18.928 149.137 22.288 153.745 22.288ZM169.676 22.288C174.404 22.288 177.644 18.736 177.644 14.008C177.644 9.28 174.404 5.728 169.676 5.728C164.948 5.728 161.732 9.28 161.732 14.008C161.732 18.736 164.948 22.288 169.676 22.288ZM169.676 20.512C166.076 20.512 163.796 17.728 163.796 14.008C163.796 10.264 166.076 7.504 169.676 7.504C173.252 7.504 175.58 10.264 175.58 14.008C175.58 17.728 173.252 20.512 169.676 20.512ZM196.403 22V5.992H193.547L188.579 18.328L183.587 5.992H180.731V22H182.723V8.536L188.171 22H188.987L194.411 8.536V22H196.403Z" fill="#0098A6"/>
<path d="M26.2969 3C25.7344 3 19.0312 3.32812 15 5.67188C10.9219 3.32812 4.21875 3 3.65625 3C1.64062 3 0 4.64062 0 6.60938V21.3281C0 23.2031 1.5 24.7969 3.42188 24.8906C5.15625 24.9844 9.46875 25.3594 12.2344 26.7188C12.6094 26.9062 13.0312 27 13.4531 27H16.5C16.9219 27 17.3438 26.9062 17.7188 26.7188C20.4844 25.3594 24.7969 24.9844 26.5312 24.8906C28.4531 24.7969 30 23.2031 30 21.3281V6.60938C30 4.64062 28.3125 3 26.2969 3ZM13.875 23.5781C13.875 24.0938 13.3594 24.4688 12.8438 24.2812C9.84375 23.1094 5.625 22.7812 3.5625 22.6406C2.8125 22.5938 2.25 22.0312 2.25 21.3281V6.60938C2.25 5.85938 2.85938 5.25 3.65625 5.25C4.54688 5.29688 9.5625 5.625 12.9375 7.17188C13.5 7.40625 13.8281 7.96875 13.8281 8.53125L13.875 13.5V23.5781ZM27.75 21.3281C27.75 22.0312 27.1406 22.5938 26.3906 22.6406C24.3281 22.7812 20.1094 23.1094 17.1094 24.2812C16.5938 24.4688 16.125 24.0938 16.125 23.5781V13.5V8.53125C16.125 7.96875 16.4531 7.40625 17.0156 7.17188C20.3906 5.625 25.4062 5.29688 26.2969 5.25C27.0938 5.25 27.75 5.85938 27.75 6.60938V21.3281Z" fill="#F37920"/>
</svg>
