<svg width="20" height="20" viewBox="0 0 20 20" fill="none" xmlns="http://www.w3.org/2000/svg">
<path d="M9.08396 1.06582C9.27132 0.688608 9.63566 0.5 10 0.5C10.3643 0.5 10.7287 0.688607 10.916 1.06582L13.4525 6.17269L19.1243 6.99161C19.9621 7.11259 20.2967 8.13573 19.6904 8.72297L15.5863 12.6981L16.5551 18.3111C16.6983 19.1403 15.8224 19.7726 15.073 19.3811L10 16.7311L4.92705 19.3811C4.17763 19.7726 3.30174 19.1403 3.44486 18.3111L4.41371 12.6981L0.309605 8.72297C-0.296687 8.13573 0.0378713 7.11259 0.875747 6.99161L6.54748 6.17269L9.08396 1.06582Z" fill="#DBDEDF"/>
</svg>
